<mxfile host="app.diagrams.net" agent="Mozilla/5.0 (Windows NT 10.0; Win64; x64) AppleWebKit/537.36 (KHTML, like Gecko) Chrome/138.0.0.0 Safari/537.36" version="27.1.4">
  <diagram name="Page-1" id="tqnJ5b3JO1aljkagMh3T">
    <mxGraphModel dx="2404" dy="714" grid="1" gridSize="10" guides="1" tooltips="1" connect="1" arrows="1" fold="1" page="1" pageScale="1" pageWidth="827" pageHeight="1169" math="0" shadow="0">
      <root>
        <mxCell id="0" />
        <mxCell id="1" parent="0" />
        <mxCell id="JD1Y94atIcPzmyMT9l0X-2" value="app_yansnet:auth" style="html=1;whiteSpace=wrap;" vertex="1" parent="1">
          <mxGeometry x="230" y="30" width="110" height="50" as="geometry" />
        </mxCell>
        <mxCell id="JD1Y94atIcPzmyMT9l0X-3" value="api_yansnet" style="html=1;whiteSpace=wrap;" vertex="1" parent="1">
          <mxGeometry x="420" y="30" width="110" height="50" as="geometry" />
        </mxCell>
        <mxCell id="JD1Y94atIcPzmyMT9l0X-4" value="api:key_cloak" style="html=1;whiteSpace=wrap;" vertex="1" parent="1">
          <mxGeometry x="610" y="30" width="110" height="50" as="geometry" />
        </mxCell>
        <mxCell id="JD1Y94atIcPzmyMT9l0X-5" value="base_de_donnÃ©es" style="html=1;whiteSpace=wrap;" vertex="1" parent="1">
          <mxGeometry x="790" y="30" width="110" height="50" as="geometry" />
        </mxCell>
        <mxCell id="JD1Y94atIcPzmyMT9l0X-13" value="fill_informations" style="html=1;verticalAlign=bottom;endArrow=block;curved=0;rounded=0;" edge="1" parent="1">
          <mxGeometry x="-0.0667" width="80" relative="1" as="geometry">
            <mxPoint x="130" y="160" as="sourcePoint" />
            <mxPoint x="280" y="160" as="targetPoint" />
            <mxPoint as="offset" />
          </mxGeometry>
        </mxCell>
        <mxCell id="JD1Y94atIcPzmyMT9l0X-15" value="send_informations()" style="html=1;verticalAlign=bottom;endArrow=block;curved=0;rounded=0;" edge="1" parent="1">
          <mxGeometry x="-0.0667" width="80" relative="1" as="geometry">
            <mxPoint x="290" y="210" as="sourcePoint" />
            <mxPoint x="468" y="209.9999999999999" as="targetPoint" />
            <mxPoint as="offset" />
          </mxGeometry>
        </mxCell>
        <mxCell id="JD1Y94atIcPzmyMT9l0X-18" value="ask_for_verification()" style="html=1;verticalAlign=bottom;endArrow=block;curved=0;rounded=0;" edge="1" parent="1">
          <mxGeometry x="-0.0667" width="80" relative="1" as="geometry">
            <mxPoint x="478" y="240" as="sourcePoint" />
            <mxPoint x="660" y="239.9999999999999" as="targetPoint" />
            <mxPoint as="offset" />
          </mxGeometry>
        </mxCell>
        <mxCell id="JD1Y94atIcPzmyMT9l0X-20" value="check_informations()" style="html=1;verticalAlign=bottom;endArrow=block;curved=0;rounded=0;entryX=0;entryY=0;entryDx=0;entryDy=5;entryPerimeter=0;" edge="1" parent="1">
          <mxGeometry x="-0.0667" width="80" relative="1" as="geometry">
            <mxPoint x="670" y="256.5" as="sourcePoint" />
            <mxPoint x="825.9999999999995" y="256" as="targetPoint" />
            <mxPoint as="offset" />
          </mxGeometry>
        </mxCell>
        <mxCell id="JD1Y94atIcPzmyMT9l0X-21" value="alt" style="shape=umlFrame;whiteSpace=wrap;html=1;pointerEvents=0;" vertex="1" parent="1">
          <mxGeometry x="-110" y="310" width="1220" height="310" as="geometry" />
        </mxCell>
        <mxCell id="JD1Y94atIcPzmyMT9l0X-22" value="&lt;font style=&quot;font-size: 12px;&quot;&gt;[if informations exist in the db]&lt;/font&gt;" style="text;html=1;align=center;verticalAlign=middle;resizable=0;points=[];autosize=1;strokeColor=none;fillColor=none;" vertex="1" parent="1">
          <mxGeometry x="-58" y="309" width="180" height="30" as="geometry" />
        </mxCell>
        <mxCell id="JD1Y94atIcPzmyMT9l0X-23" value="result_of_verification" style="html=1;verticalAlign=bottom;endArrow=open;dashed=1;endSize=8;curved=0;rounded=0;" edge="1" parent="1">
          <mxGeometry relative="1" as="geometry">
            <mxPoint x="826" y="287" as="sourcePoint" />
            <mxPoint x="670" y="287" as="targetPoint" />
          </mxGeometry>
        </mxCell>
        <mxCell id="JD1Y94atIcPzmyMT9l0X-24" value="server:key_cloak" style="html=1;whiteSpace=wrap;" vertex="1" parent="1">
          <mxGeometry x="990" y="30" width="110" height="50" as="geometry" />
        </mxCell>
        <mxCell id="JD1Y94atIcPzmyMT9l0X-27" value="save_informations()" style="html=1;verticalAlign=bottom;endArrow=block;curved=0;rounded=0;entryX=0.4;entryY=0.237;entryDx=0;entryDy=0;entryPerimeter=0;" edge="1" parent="1">
          <mxGeometry x="-0.0667" width="80" relative="1" as="geometry">
            <mxPoint x="671" y="358.5" as="sourcePoint" />
            <mxPoint x="1040" y="357.96000000000004" as="targetPoint" />
            <mxPoint as="offset" />
          </mxGeometry>
        </mxCell>
        <mxCell id="JD1Y94atIcPzmyMT9l0X-28" value="validate_informations()" style="html=1;verticalAlign=bottom;endArrow=open;dashed=1;endSize=8;curved=0;rounded=0;" edge="1" parent="1">
          <mxGeometry relative="1" as="geometry">
            <mxPoint x="660" y="371" as="sourcePoint" />
            <mxPoint x="478" y="371" as="targetPoint" />
          </mxGeometry>
        </mxCell>
        <mxCell id="JD1Y94atIcPzmyMT9l0X-30" value="give_acces_to_home()" style="html=1;verticalAlign=bottom;endArrow=open;dashed=1;endSize=8;curved=0;rounded=0;" edge="1" parent="1">
          <mxGeometry relative="1" as="geometry">
            <mxPoint x="468" y="398.89" as="sourcePoint" />
            <mxPoint x="290" y="398.89" as="targetPoint" />
          </mxGeometry>
        </mxCell>
        <mxCell id="JD1Y94atIcPzmyMT9l0X-32" value="home_page" style="html=1;verticalAlign=bottom;endArrow=open;dashed=1;endSize=8;curved=0;rounded=0;" edge="1" parent="1">
          <mxGeometry relative="1" as="geometry">
            <mxPoint x="280" y="430" as="sourcePoint" />
            <mxPoint x="130" y="430" as="targetPoint" />
          </mxGeometry>
        </mxCell>
        <mxCell id="JD1Y94atIcPzmyMT9l0X-35" value="" style="endArrow=none;dashed=1;html=1;rounded=0;entryX=1.001;entryY=0.684;entryDx=0;entryDy=0;entryPerimeter=0;exitX=0.004;exitY=0.684;exitDx=0;exitDy=0;exitPerimeter=0;" edge="1" parent="1">
          <mxGeometry width="50" height="50" relative="1" as="geometry">
            <mxPoint x="-105.11999999999989" y="478.03999999999996" as="sourcePoint" />
            <mxPoint x="1111.2199999999998" y="478.03999999999996" as="targetPoint" />
          </mxGeometry>
        </mxCell>
        <mxCell id="JD1Y94atIcPzmyMT9l0X-36" value="&lt;font style=&quot;font-size: 12px;&quot;&gt;[else]&lt;/font&gt;" style="text;html=1;align=center;verticalAlign=middle;resizable=0;points=[];autosize=1;strokeColor=none;fillColor=none;" vertex="1" parent="1">
          <mxGeometry x="-56" y="480" width="50" height="30" as="geometry" />
        </mxCell>
        <mxCell id="JD1Y94atIcPzmyMT9l0X-38" value="reject_informations()" style="html=1;verticalAlign=bottom;endArrow=open;dashed=1;endSize=8;curved=0;rounded=0;" edge="1" parent="1">
          <mxGeometry relative="1" as="geometry">
            <mxPoint x="660" y="510" as="sourcePoint" />
            <mxPoint x="478" y="510" as="targetPoint" />
          </mxGeometry>
        </mxCell>
        <mxCell id="JD1Y94atIcPzmyMT9l0X-40" value="invalid_information()" style="html=1;verticalAlign=bottom;endArrow=open;dashed=1;endSize=8;curved=0;rounded=0;" edge="1" parent="1">
          <mxGeometry relative="1" as="geometry">
            <mxPoint x="472" y="540" as="sourcePoint" />
            <mxPoint x="290" y="540" as="targetPoint" />
          </mxGeometry>
        </mxCell>
        <mxCell id="JD1Y94atIcPzmyMT9l0X-44" value="" style="html=1;verticalAlign=bottom;endArrow=open;dashed=1;endSize=8;curved=0;rounded=0;" edge="1" parent="1">
          <mxGeometry relative="1" as="geometry">
            <mxPoint x="280" y="570" as="sourcePoint" />
            <mxPoint x="130" y="570" as="targetPoint" />
          </mxGeometry>
        </mxCell>
        <mxCell id="JD1Y94atIcPzmyMT9l0X-52" value="error_message" style="edgeLabel;html=1;align=center;verticalAlign=middle;resizable=0;points=[];" vertex="1" connectable="0" parent="JD1Y94atIcPzmyMT9l0X-44">
          <mxGeometry x="0.2133" relative="1" as="geometry">
            <mxPoint x="12" y="-8" as="offset" />
          </mxGeometry>
        </mxCell>
        <mxCell id="JD1Y94atIcPzmyMT9l0X-45" value="" style="shape=umlLifeline;perimeter=lifelinePerimeter;whiteSpace=wrap;html=1;container=1;dropTarget=0;collapsible=0;recursiveResize=0;outlineConnect=0;portConstraint=eastwest;newEdgeStyle={&quot;curved&quot;:0,&quot;rounded&quot;:0};participant=umlActor;strokeColor=#000000;" vertex="1" parent="1">
          <mxGeometry x="114" y="32" width="21" height="650" as="geometry" />
        </mxCell>
        <mxCell id="JD1Y94atIcPzmyMT9l0X-50" value="" style="html=1;points=[[0,0,0,0,5],[0,1,0,0,-5],[1,0,0,0,5],[1,1,0,0,-5]];perimeter=orthogonalPerimeter;outlineConnect=0;targetShapes=umlLifeline;portConstraint=eastwest;newEdgeStyle={&quot;curved&quot;:0,&quot;rounded&quot;:0};" vertex="1" parent="JD1Y94atIcPzmyMT9l0X-45">
          <mxGeometry x="5" y="370" width="11" height="47" as="geometry" />
        </mxCell>
        <mxCell id="JD1Y94atIcPzmyMT9l0X-48" value="" style="html=1;points=[[0,0,0,0,5],[0,1,0,0,-5],[1,0,0,0,5],[1,1,0,0,-5]];perimeter=orthogonalPerimeter;outlineConnect=0;targetShapes=umlLifeline;portConstraint=eastwest;newEdgeStyle={&quot;curved&quot;:0,&quot;rounded&quot;:0};" vertex="1" parent="1">
          <mxGeometry x="119" y="139" width="11" height="39" as="geometry" />
        </mxCell>
        <mxCell id="JD1Y94atIcPzmyMT9l0X-51" value="" style="html=1;points=[[0,0,0,0,5],[0,1,0,0,-5],[1,0,0,0,5],[1,1,0,0,-5]];perimeter=orthogonalPerimeter;outlineConnect=0;targetShapes=umlLifeline;portConstraint=eastwest;newEdgeStyle={&quot;curved&quot;:0,&quot;rounded&quot;:0};" vertex="1" parent="1">
          <mxGeometry x="119" y="542" width="11" height="47" as="geometry" />
        </mxCell>
        <mxCell id="JD1Y94atIcPzmyMT9l0X-54" value="" style="endArrow=none;dashed=1;html=1;rounded=0;entryX=0.5;entryY=1;entryDx=0;entryDy=0;" edge="1" parent="1" source="JD1Y94atIcPzmyMT9l0X-56" target="JD1Y94atIcPzmyMT9l0X-2">
          <mxGeometry width="50" height="50" relative="1" as="geometry">
            <mxPoint x="285" y="650" as="sourcePoint" />
            <mxPoint x="520" y="310" as="targetPoint" />
          </mxGeometry>
        </mxCell>
        <mxCell id="JD1Y94atIcPzmyMT9l0X-55" value="" style="html=1;points=[[0,0,0,0,5],[0,1,0,0,-5],[1,0,0,0,5],[1,1,0,0,-5]];perimeter=orthogonalPerimeter;outlineConnect=0;targetShapes=umlLifeline;portConstraint=eastwest;newEdgeStyle={&quot;curved&quot;:0,&quot;rounded&quot;:0};" vertex="1" parent="1">
          <mxGeometry x="280" y="125" width="10" height="110" as="geometry" />
        </mxCell>
        <mxCell id="JD1Y94atIcPzmyMT9l0X-57" value="" style="endArrow=none;dashed=1;html=1;rounded=0;entryX=0.5;entryY=1;entryDx=0;entryDy=0;" edge="1" parent="1" source="JD1Y94atIcPzmyMT9l0X-58" target="JD1Y94atIcPzmyMT9l0X-56">
          <mxGeometry width="50" height="50" relative="1" as="geometry">
            <mxPoint x="285" y="650" as="sourcePoint" />
            <mxPoint x="285" y="80" as="targetPoint" />
          </mxGeometry>
        </mxCell>
        <mxCell id="JD1Y94atIcPzmyMT9l0X-56" value="" style="html=1;points=[[0,0,0,0,5],[0,1,0,0,-5],[1,0,0,0,5],[1,1,0,0,-5]];perimeter=orthogonalPerimeter;outlineConnect=0;targetShapes=umlLifeline;portConstraint=eastwest;newEdgeStyle={&quot;curved&quot;:0,&quot;rounded&quot;:0};" vertex="1" parent="1">
          <mxGeometry x="280" y="380" width="10" height="70" as="geometry" />
        </mxCell>
        <mxCell id="JD1Y94atIcPzmyMT9l0X-59" value="" style="endArrow=none;dashed=1;html=1;rounded=0;entryX=0.5;entryY=1;entryDx=0;entryDy=0;" edge="1" parent="1" target="JD1Y94atIcPzmyMT9l0X-58">
          <mxGeometry width="50" height="50" relative="1" as="geometry">
            <mxPoint x="285" y="650" as="sourcePoint" />
            <mxPoint x="285" y="450" as="targetPoint" />
          </mxGeometry>
        </mxCell>
        <mxCell id="JD1Y94atIcPzmyMT9l0X-58" value="" style="html=1;points=[[0,0,0,0,5],[0,1,0,0,-5],[1,0,0,0,5],[1,1,0,0,-5]];perimeter=orthogonalPerimeter;outlineConnect=0;targetShapes=umlLifeline;portConstraint=eastwest;newEdgeStyle={&quot;curved&quot;:0,&quot;rounded&quot;:0};" vertex="1" parent="1">
          <mxGeometry x="280" y="519" width="10" height="70" as="geometry" />
        </mxCell>
        <mxCell id="JD1Y94atIcPzmyMT9l0X-60" value="" style="endArrow=none;dashed=1;html=1;rounded=0;entryX=0.5;entryY=1;entryDx=0;entryDy=0;" edge="1" parent="1" source="JD1Y94atIcPzmyMT9l0X-62">
          <mxGeometry width="50" height="50" relative="1" as="geometry">
            <mxPoint x="470" y="681.9047764369419" as="sourcePoint" />
            <mxPoint x="475" y="79.99999999999989" as="targetPoint" />
          </mxGeometry>
        </mxCell>
        <mxCell id="JD1Y94atIcPzmyMT9l0X-61" value="" style="html=1;points=[[0,0,0,0,5],[0,1,0,0,-5],[1,0,0,0,5],[1,1,0,0,-5]];perimeter=orthogonalPerimeter;outlineConnect=0;targetShapes=umlLifeline;portConstraint=eastwest;newEdgeStyle={&quot;curved&quot;:0,&quot;rounded&quot;:0};" vertex="1" parent="1">
          <mxGeometry x="469" y="186" width="10" height="80" as="geometry" />
        </mxCell>
        <mxCell id="JD1Y94atIcPzmyMT9l0X-63" value="" style="endArrow=none;dashed=1;html=1;rounded=0;entryX=0.5;entryY=1;entryDx=0;entryDy=0;" edge="1" parent="1" source="JD1Y94atIcPzmyMT9l0X-64" target="JD1Y94atIcPzmyMT9l0X-62">
          <mxGeometry width="50" height="50" relative="1" as="geometry">
            <mxPoint x="470" y="681.9047764369419" as="sourcePoint" />
            <mxPoint x="475" y="79.99999999999989" as="targetPoint" />
          </mxGeometry>
        </mxCell>
        <mxCell id="JD1Y94atIcPzmyMT9l0X-62" value="" style="html=1;points=[[0,0,0,0,5],[0,1,0,0,-5],[1,0,0,0,5],[1,1,0,0,-5]];perimeter=orthogonalPerimeter;outlineConnect=0;targetShapes=umlLifeline;portConstraint=eastwest;newEdgeStyle={&quot;curved&quot;:0,&quot;rounded&quot;:0};" vertex="1" parent="1">
          <mxGeometry x="468" y="350" width="10" height="60" as="geometry" />
        </mxCell>
        <mxCell id="JD1Y94atIcPzmyMT9l0X-65" value="" style="endArrow=none;dashed=1;html=1;rounded=0;entryX=0.5;entryY=1;entryDx=0;entryDy=0;" edge="1" parent="1" target="JD1Y94atIcPzmyMT9l0X-64">
          <mxGeometry width="50" height="50" relative="1" as="geometry">
            <mxPoint x="473" y="680" as="sourcePoint" />
            <mxPoint x="473" y="410" as="targetPoint" />
          </mxGeometry>
        </mxCell>
        <mxCell id="JD1Y94atIcPzmyMT9l0X-64" value="" style="html=1;points=[[0,0,0,0,5],[0,1,0,0,-5],[1,0,0,0,5],[1,1,0,0,-5]];perimeter=orthogonalPerimeter;outlineConnect=0;targetShapes=umlLifeline;portConstraint=eastwest;newEdgeStyle={&quot;curved&quot;:0,&quot;rounded&quot;:0};" vertex="1" parent="1">
          <mxGeometry x="468" y="500" width="10" height="60" as="geometry" />
        </mxCell>
        <mxCell id="JD1Y94atIcPzmyMT9l0X-66" value="" style="endArrow=none;dashed=1;html=1;rounded=0;entryX=0.5;entryY=1;entryDx=0;entryDy=0;" edge="1" parent="1">
          <mxGeometry width="50" height="50" relative="1" as="geometry">
            <mxPoint x="664" y="673.809552873884" as="sourcePoint" />
            <mxPoint x="664.29" y="79.99999999999989" as="targetPoint" />
          </mxGeometry>
        </mxCell>
        <mxCell id="JD1Y94atIcPzmyMT9l0X-67" value="" style="html=1;points=[[0,0,0,0,5],[0,1,0,0,-5],[1,0,0,0,5],[1,1,0,0,-5]];perimeter=orthogonalPerimeter;outlineConnect=0;targetShapes=umlLifeline;portConstraint=eastwest;newEdgeStyle={&quot;curved&quot;:0,&quot;rounded&quot;:0};" vertex="1" parent="1">
          <mxGeometry x="660" y="490" width="10" height="60" as="geometry" />
        </mxCell>
        <mxCell id="JD1Y94atIcPzmyMT9l0X-68" value="" style="html=1;points=[[0,0,0,0,5],[0,1,0,0,-5],[1,0,0,0,5],[1,1,0,0,-5]];perimeter=orthogonalPerimeter;outlineConnect=0;targetShapes=umlLifeline;portConstraint=eastwest;newEdgeStyle={&quot;curved&quot;:0,&quot;rounded&quot;:0};" vertex="1" parent="1">
          <mxGeometry x="660" y="220" width="10" height="163" as="geometry" />
        </mxCell>
        <mxCell id="JD1Y94atIcPzmyMT9l0X-69" value="" style="endArrow=none;dashed=1;html=1;rounded=0;entryX=0.406;entryY=0.911;entryDx=0;entryDy=0;entryPerimeter=0;" edge="1" parent="1" source="JD1Y94atIcPzmyMT9l0X-70" target="JD1Y94atIcPzmyMT9l0X-5">
          <mxGeometry width="50" height="50" relative="1" as="geometry">
            <mxPoint x="835" y="670" as="sourcePoint" />
            <mxPoint x="830" y="90" as="targetPoint" />
          </mxGeometry>
        </mxCell>
        <mxCell id="JD1Y94atIcPzmyMT9l0X-71" value="" style="endArrow=none;dashed=1;html=1;rounded=0;entryX=0.406;entryY=0.911;entryDx=0;entryDy=0;entryPerimeter=0;" edge="1" parent="1" target="JD1Y94atIcPzmyMT9l0X-70">
          <mxGeometry width="50" height="50" relative="1" as="geometry">
            <mxPoint x="835" y="670" as="sourcePoint" />
            <mxPoint x="835" y="76" as="targetPoint" />
          </mxGeometry>
        </mxCell>
        <mxCell id="JD1Y94atIcPzmyMT9l0X-70" value="" style="html=1;points=[[0,0,0,0,5],[0,1,0,0,-5],[1,0,0,0,5],[1,1,0,0,-5]];perimeter=orthogonalPerimeter;outlineConnect=0;targetShapes=umlLifeline;portConstraint=eastwest;newEdgeStyle={&quot;curved&quot;:0,&quot;rounded&quot;:0};" vertex="1" parent="1">
          <mxGeometry x="830" y="226" width="10" height="80" as="geometry" />
        </mxCell>
        <mxCell id="JD1Y94atIcPzmyMT9l0X-72" value="" style="endArrow=none;dashed=1;html=1;rounded=0;exitX=0.5;exitY=1;exitDx=0;exitDy=0;" edge="1" parent="1" source="JD1Y94atIcPzmyMT9l0X-73">
          <mxGeometry width="50" height="50" relative="1" as="geometry">
            <mxPoint x="250" y="360" as="sourcePoint" />
            <mxPoint x="1040" y="670" as="targetPoint" />
          </mxGeometry>
        </mxCell>
        <mxCell id="JD1Y94atIcPzmyMT9l0X-74" value="" style="endArrow=none;dashed=1;html=1;rounded=0;exitX=0.5;exitY=1;exitDx=0;exitDy=0;" edge="1" parent="1" source="JD1Y94atIcPzmyMT9l0X-24" target="JD1Y94atIcPzmyMT9l0X-73">
          <mxGeometry width="50" height="50" relative="1" as="geometry">
            <mxPoint x="1045" y="80" as="sourcePoint" />
            <mxPoint x="1040" y="670" as="targetPoint" />
          </mxGeometry>
        </mxCell>
        <mxCell id="JD1Y94atIcPzmyMT9l0X-73" value="" style="html=1;points=[[0,0,0,0,5],[0,1,0,0,-5],[1,0,0,0,5],[1,1,0,0,-5]];perimeter=orthogonalPerimeter;outlineConnect=0;targetShapes=umlLifeline;portConstraint=eastwest;newEdgeStyle={&quot;curved&quot;:0,&quot;rounded&quot;:0};" vertex="1" parent="1">
          <mxGeometry x="1039" y="332" width="10" height="48" as="geometry" />
        </mxCell>
        <mxCell id="JD1Y94atIcPzmyMT9l0X-75" value="Etudiant" style="text;html=1;align=center;verticalAlign=middle;resizable=0;points=[];autosize=1;strokeColor=none;fillColor=none;" vertex="1" parent="1">
          <mxGeometry x="89.5" y="65" width="70" height="30" as="geometry" />
        </mxCell>
      </root>
    </mxGraphModel>
  </diagram>
</mxfile>
